<?xml version="1.0" standalone="no"?>
<!DOCTYPE svg PUBLIC "-//W3C//DTD SVG 20010904//EN"
 "http://www.w3.org/TR/2001/REC-SVG-20010904/DTD/svg10.dtd">
<svg version="1.0" xmlns="http://www.w3.org/2000/svg"
 width="1280.000000pt" height="640.000000pt" viewBox="0 0 1280.000000 640.000000"
 preserveAspectRatio="xMidYMid meet">
<metadata>
Created by potrace 1.15, written by Peter Selinger 2001-2017
</metadata>
<g transform="translate(0.000000,640.000000) scale(0.100000,-0.100000)"
fill="#000000" stroke="none">
<path d="M6687 5030 c-3 -19 -11 -127 -17 -240 -6 -113 -13 -231 -17 -264 -6
-56 -7 -58 -20 -35 -13 24 -14 23 -8 -8 4 -17 -2 -73 -11 -125 -17 -88 -18
-91 -25 -53 -3 22 -15 128 -25 235 l-19 195 -5 -170 c-7 -197 -23 -259 -106
-396 -45 -74 -64 -89 -64 -51 0 21 -131 554 -135 550 -2 -2 12 -111 31 -243
40 -285 49 -391 36 -425 -8 -21 -11 -15 -16 45 -13 125 -36 286 -71 490 l-35
200 6 -145 c4 -80 9 -208 13 -285 3 -77 4 -159 1 -183 l-5 -44 -18 31 c-17 29
-17 35 -2 116 21 112 15 142 -8 42 -10 -42 -23 -77 -28 -77 -5 0 -9 -11 -9
-24 0 -14 -4 -28 -10 -31 -6 -4 -10 13 -10 44 0 44 -36 385 -59 556 -8 54 -9
49 -10 -55 -1 -92 -5 -128 -23 -179 l-23 -65 -5 240 -5 239 -18 -170 c-24
-217 -24 -217 -49 -176 -11 17 -36 66 -54 109 -57 129 -36 42 30 -126 20 -51
34 -102 32 -115 -18 -87 -14 -88 -62 23 -24 58 -44 115 -44 128 0 13 -4 21 -9
18 -5 -3 -14 15 -21 39 -20 72 -24 44 -5 -34 9 -39 15 -76 12 -83 -3 -7 -6 -2
-6 11 -2 48 -12 12 -21 -75 -14 -127 -82 -423 -91 -392 -5 21 -14 147 -25 393
-14 292 -30 313 -37 50 -5 -149 -5 -151 -40 -220 -61 -120 -62 -120 -76 -29
-20 129 -79 416 -96 464 -8 25 -13 34 -10 20 2 -14 12 -100 21 -192 14 -141
15 -176 4 -227 -7 -34 -16 -61 -19 -61 -4 0 -13 57 -20 128 -11 111 -37 312
-44 335 -1 4 -2 -135 -3 -310 l0 -318 -38 -68 c-21 -38 -39 -67 -41 -65 -2 2
12 68 31 148 19 80 33 149 31 153 -1 5 -13 -24 -26 -65 -31 -96 -120 -331
-130 -341 -4 -4 -18 15 -31 42 l-23 50 17 263 c9 145 19 281 22 303 4 22 3 37
0 34 -3 -3 -17 -65 -30 -138 -13 -72 -27 -135 -31 -139 -4 -4 -5 6 -1 22 9 38
-5 699 -14 666 -4 -14 -10 -73 -14 -130 -23 -338 -59 -660 -75 -660 -4 0 -21
29 -39 65 -28 57 -39 104 -77 337 -25 149 -45 275 -45 281 0 6 -2 8 -5 5 -3
-2 -1 -63 5 -134 5 -71 11 -185 14 -254 3 -69 9 -158 12 -197 4 -40 4 -73 1
-73 -4 0 -14 17 -23 38 -14 35 -19 59 -24 142 l-3 35 -6 -40 -6 -40 -24 67
c-14 37 -26 66 -28 64 -2 -2 8 -49 22 -105 24 -97 25 -104 10 -160 -8 -32 -23
-76 -32 -97 l-18 -39 -5 70 -5 70 -8 -55 c-4 -30 -11 -82 -15 -115 l-8 -60
-12 65 c-7 36 -35 191 -62 345 -28 154 -52 285 -55 290 -2 6 -1 -28 2 -75 5
-74 2 -94 -18 -150 l-24 -65 -8 65 c-4 36 -14 115 -21 175 l-13 110 -2 -232
c-1 -214 -3 -236 -23 -290 l-23 -58 -5 55 -6 55 -7 -80 c-5 -44 -20 -114 -35
-155 l-26 -75 -8 55 c-18 129 -42 264 -69 389 -18 80 -27 147 -24 165 4 22 3
27 -3 17 -7 -10 -13 2 -22 45 -25 128 -31 124 -16 -11 10 -91 9 -106 -8 -162
-11 -35 -24 -63 -28 -63 -4 0 -14 20 -20 45 -9 32 -14 41 -18 29 -5 -13 -14
-4 -38 37 -38 65 -42 58 -7 -11 l25 -50 -30 -141 c-39 -183 -49 -221 -59 -214
-5 3 -12 -5 -15 -18 -6 -21 -64 -93 -70 -85 -2 1 -8 17 -14 33 -11 28 -11 26
-6 -15 5 -37 2 -49 -14 -63 -22 -20 -15 -48 -58 223 -23 147 -23 159 -9 233
21 109 18 137 -5 49 -21 -80 -60 -173 -66 -157 -2 6 -22 57 -44 115 -21 58
-39 100 -39 94 -1 -5 12 -64 29 -130 34 -135 34 -142 16 -166 -12 -16 -16 -13
-40 32 -26 48 -27 57 -26 178 3 232 0 485 -5 480 -3 -2 -14 -112 -25 -243 -12
-132 -22 -241 -24 -242 -2 -2 -11 16 -22 39 -10 24 -21 45 -24 48 -3 3 -16 29
-29 57 -14 29 -26 51 -28 50 -2 -2 12 -45 29 -95 22 -61 30 -94 23 -101 -7 -7
-33 48 -79 164 -38 96 -71 174 -72 172 -1 -1 23 -94 55 -207 l57 -205 -6 -180
c-3 -99 -7 -156 -8 -126 -3 74 -16 55 -22 -32 l-5 -72 -32 75 c-38 88 -44 70
-9 -27 31 -86 10 -59 -50 62 -44 91 -53 99 -34 35 6 -19 13 -51 16 -70 3 -19
7 -42 10 -50 7 -21 -5 -6 -60 71 l-46 67 30 138 c17 77 33 149 35 162 3 12 3
22 0 22 -2 0 -14 -34 -26 -75 -12 -41 -24 -73 -27 -71 -2 3 6 80 18 171 12 92
20 169 17 171 -2 2 -12 -35 -23 -83 l-19 -88 -6 70 c-4 39 -8 126 -9 195 -3
128 -15 299 -18 244 -8 -138 -33 -486 -38 -514 l-6 -35 -14 37 c-14 40 -66
122 -161 254 -32 45 -64 90 -71 100 -7 11 11 -26 39 -81 164 -312 168 -325
149 -500 -6 -60 -15 -128 -20 -150 -5 -22 -15 -67 -21 -100 l-12 -60 -68 203
c-68 203 -68 203 -63 295 l4 92 -19 -90 c-11 -49 -28 -110 -37 -135 -24 -63
-74 -163 -80 -157 -2 2 -11 44 -20 92 -8 48 -33 143 -55 212 -21 68 -39 132
-39 143 0 10 -3 21 -8 24 -4 2 -6 -14 -4 -37 4 -41 3 -41 -12 -20 -9 12 -35
55 -58 95 -22 40 -59 100 -81 133 -22 33 -53 86 -69 118 -16 31 -31 57 -33 57
-6 0 21 -73 45 -119 27 -54 20 -64 -10 -16 -12 20 -25 34 -27 31 -3 -3 16 -39
42 -81 35 -57 45 -82 41 -100 -4 -14 -10 -25 -14 -25 -4 0 -24 21 -44 48 -20
26 -55 71 -77 101 -27 34 -41 64 -42 85 -1 30 -1 30 -9 6 -4 -14 -8 -20 -9
-14 -1 5 -8 19 -16 30 -14 18 -14 17 -4 -11 5 -16 15 -35 20 -41 12 -14 28
-299 29 -491 0 -110 -3 -140 -21 -187 -41 -107 -48 -75 -50 224 0 129 -4 258
-9 285 l-7 50 -2 -66 c-1 -71 -18 -262 -27 -319 -6 -35 -6 -34 -35 40 -24 62
-29 90 -30 170 -1 93 -16 185 -18 115 -2 -46 -13 -105 -20 -105 -9 1 -67 145
-102 257 -18 57 -34 101 -36 99 -2 -1 8 -59 21 -127 33 -164 59 -350 54 -380
l-4 -24 -11 25 c-7 14 -49 118 -94 233 -45 114 -85 210 -89 212 -4 3 6 -37 22
-88 36 -113 118 -433 118 -460 0 -29 -101 -162 -111 -145 -4 7 -38 102 -75
210 -38 109 -69 196 -72 194 -2 -2 20 -108 49 -236 51 -229 54 -257 22 -267
-6 -2 -15 9 -22 24 -18 46 -105 360 -127 458 l-13 60 5 -70 c2 -38 12 -111 20
-161 9 -50 14 -106 12 -125 l-3 -34 -36 50 c-49 67 -59 108 -59 251 0 223 -14
551 -21 509 -4 -22 -13 -129 -19 -238 -7 -109 -17 -200 -22 -203 -4 -3 -8 -1
-8 4 0 4 -18 33 -40 62 -30 40 -40 64 -41 94 l-2 41 -6 -34 -6 -33 -40 56
c-68 97 -66 94 -56 65 5 -14 28 -57 51 -94 l42 -69 -12 -130 c-12 -118 -14
-128 -28 -110 -14 19 -15 19 -7 -1 14 -34 16 -88 7 -145 l-9 -55 -20 45 c-18
41 -20 63 -17 275 l3 230 -24 -170 c-13 -93 -24 -172 -25 -175 -1 -3 -8 11
-15 30 -7 19 -14 80 -15 135 l-2 100 -14 -70 c-7 -38 -13 -90 -13 -114 -1 -24
-4 -41 -9 -37 -4 4 -24 69 -44 144 -20 75 -37 129 -37 120 -1 -9 13 -104 29
-210 17 -106 29 -211 28 -233 -3 -38 -5 -35 -47 70 -24 61 -46 129 -48 153 -3
23 -10 42 -15 42 -5 0 -15 15 -23 33 -19 42 -19 24 0 -37 8 -27 15 -68 14 -90
l0 -41 -16 40 c-92 236 -137 344 -141 341 -2 -3 5 -33 17 -68 44 -136 49 -169
40 -263 -5 -49 -21 -128 -36 -175 l-26 -85 -17 80 c-18 80 -59 200 -66 193 -2
-2 3 -26 12 -53 8 -28 17 -84 20 -125 l6 -75 -35 48 c-20 27 -43 58 -52 70
l-16 22 12 -23 c6 -13 8 -26 5 -29 -2 -3 4 -28 15 -56 11 -28 27 -83 35 -123
15 -72 15 -73 -10 -121 -17 -33 -25 -42 -26 -28 l-1 20 -8 -20 c-7 -17 -9 -15
-15 15 -31 157 -112 489 -114 469 -1 -13 6 -98 17 -189 10 -91 17 -166 16
-168 -1 -1 -21 22 -44 52 -30 41 -41 65 -41 91 0 19 -4 35 -9 35 -5 0 -12 16
-15 35 -6 31 -115 413 -144 505 l-12 35 6 -44 c2 -24 -1 -80 -7 -125 -12 -80
-12 -81 -24 -46 -6 19 -22 77 -35 129 -14 51 -26 89 -27 84 -2 -5 10 -90 26
-188 l29 -178 -19 -126 c-11 -69 -23 -139 -27 -156 l-8 -29 -34 59 c-19 33
-58 123 -87 200 -51 138 -68 164 -37 59 8 -30 14 -59 12 -64 -2 -6 -28 34 -58
88 l-55 98 -2 -69 c-3 -86 -32 -209 -72 -306 l-31 -74 0 -1448 0 -1449 6326 0
c5774 0 6326 1 6320 16 -14 37 -17 93 -7 113 19 34 35 25 48 -26 23 -95 28
-103 73 -103 l40 0 0 1515 0 1514 -21 36 c-17 29 -21 47 -16 88 5 51 5 51 -7
17 l-13 -35 -46 80 c-26 44 -47 88 -47 97 0 10 -4 18 -9 18 -5 0 -12 12 -15
26 -4 15 -9 24 -12 22 -2 -3 5 -31 16 -63 16 -47 20 -82 19 -179 -1 -77 -4
-110 -9 -91 l-8 30 -1 -34 c0 -18 4 -72 10 -120 l12 -86 -54 -143 c-29 -79
-55 -139 -57 -133 -2 6 1 50 7 98 14 110 14 221 1 332 -6 47 -13 154 -17 236
-6 124 -8 140 -14 95 -4 -30 -8 -86 -9 -125 -1 -59 -3 -67 -13 -51 -12 19 -65
98 -160 238 -28 42 -53 75 -55 73 -3 -2 18 -47 46 -99 l51 -94 -24 -119 c-14
-65 -29 -131 -33 -148 l-9 -30 -10 40 c-6 22 -29 114 -51 205 -23 91 -39 145
-36 120 16 -128 15 -308 -2 -417 -9 -62 -18 -113 -21 -113 -2 0 -11 16 -19 35
-9 22 -14 70 -14 134 0 117 -19 188 -81 301 -23 41 -64 117 -90 169 -27 52
-49 92 -49 88 0 -11 51 -190 91 -314 43 -139 55 -217 44 -300 l-8 -58 -14 40
c-8 22 -32 108 -53 190 -22 83 -48 178 -59 212 -15 49 -17 71 -10 104 13 56 6
60 -11 7 -19 -61 -25 -64 -39 -17 -7 22 -15 39 -17 36 -3 -3 2 -29 10 -58 15
-49 15 -58 0 -104 -23 -71 -34 -77 -35 -19 -2 41 -3 37 -9 -26 -4 -41 -5 -78
-3 -82 2 -5 0 -8 -5 -8 -12 0 -22 35 -22 80 0 26 -3 31 -10 20 -10 -17 -9 -19
-34 65 -22 74 -19 23 4 -73 20 -84 24 -175 11 -222 -6 -19 -10 -5 -16 53 -4
42 -12 77 -17 77 -6 0 -7 -26 -3 -70 4 -38 4 -70 1 -70 -3 0 -15 19 -27 42
-21 42 -22 57 -4 163 4 23 3 26 -4 10 -6 -14 -11 14 -17 95 l-8 115 -17 -199
c-17 -189 -23 -226 -33 -195 -11 36 -76 360 -82 411 -4 34 -12 59 -20 62 -8 3
-14 16 -15 28 0 13 -3 18 -5 11 -3 -6 -1 -37 5 -67 8 -43 7 -67 -5 -108 -8
-29 -22 -88 -31 -131 -9 -42 -19 -75 -22 -71 -3 3 -11 29 -18 57 -11 47 -11
42 -6 -55 4 -78 2 -112 -7 -123 -11 -13 -14 -12 -31 8 -21 25 -24 19 -7 -18 9
-19 8 -31 -2 -52 -12 -26 -13 -27 -21 -8 -4 11 -8 49 -9 85 0 36 -7 119 -15
185 -8 66 -15 131 -16 145 -1 14 -5 -72 -9 -190 l-7 -215 -32 -62 c-30 -61
-49 -83 -36 -44 10 34 -15 154 -51 241 -29 70 -36 97 -35 155 l0 70 -12 -50
-12 -50 -22 50 c-12 28 -25 63 -28 78 -4 15 -10 26 -12 23 -3 -3 7 -52 22
-111 28 -112 29 -160 2 -85 -10 25 -15 34 -12 20 17 -83 16 -126 -2 -170 l-20
-44 -42 79 c-23 44 -44 94 -46 110 -2 17 -10 160 -16 319 -7 159 -16 281 -20
270 -4 -10 -12 -134 -18 -274 -7 -140 -15 -271 -19 -290 -8 -34 -8 -33 -42 55
-28 72 -36 109 -40 185 -8 136 -18 79 -26 -143 -3 -104 -10 -185 -14 -180 -7
8 -89 268 -110 351 -6 23 -12 42 -13 42 -2 0 -2 -114 0 -252 l2 -253 -29 120
c-71 289 -91 378 -105 476 -21 141 -26 144 -19 14 10 -198 20 -470 17 -474 -9
-12 -18 17 -25 72 -15 131 -21 168 -29 173 -5 3 -9 -25 -9 -63 -1 -65 -1 -67
-15 -43 l-15 25 6 -30 c4 -16 10 -37 14 -45 4 -8 5 -48 3 -88 l-6 -73 -18 38
c-24 51 -23 32 2 -47 18 -59 19 -74 9 -161 -16 -140 -28 -173 -29 -79 -2 105
-17 187 -56 304 l-34 101 5 -75 c6 -75 -9 -238 -24 -281 -7 -19 -13 -13 -46
47 -42 78 -39 52 5 -46 39 -84 17 -60 -54 62 -49 83 -59 108 -68 175 -13 91
-19 104 -20 42 -1 -24 -3 -36 -6 -26 -8 32 -22 17 -17 -20 2 -21 -9 9 -24 67
-16 58 -31 112 -35 120 -7 16 -6 8 18 -155 34 -231 37 -284 19 -339 l-17 -50
-32 119 c-45 171 -159 555 -163 551 -2 -2 18 -115 43 -251 48 -262 55 -339 14
-164 -21 89 -25 99 -29 69 -4 -25 -11 8 -24 110 -27 207 -34 216 -29 40 l4
-155 -52 100 c-29 55 -63 125 -76 155 -40 93 -17 2 37 -145 26 -71 51 -146 55
-165 3 -19 9 -43 12 -54 3 -10 1 -16 -4 -13 -5 3 -29 57 -53 119 -24 62 -56
141 -72 176 -24 51 -28 71 -23 110 6 46 5 46 -8 17 l-13 -29 -24 67 c-13 37
-25 65 -28 63 -2 -3 8 -46 23 -96 14 -51 24 -95 21 -98 -4 -3 -6 -1 -6 4 0 6
-7 19 -15 30 -12 14 -11 7 4 -31 17 -47 17 -57 4 -155 -7 -58 -16 -116 -19
-130 -4 -19 -28 36 -94 220 -49 135 -89 239 -90 232 0 -7 22 -101 49 -210 52
-207 71 -315 53 -297 -6 6 -53 69 -106 140 -78 106 -98 140 -107 185 -13 61
-41 159 -35 120 15 -92 27 -293 19 -301 -7 -7 -13 4 -17 33 -4 24 -11 50 -17
58 -9 13 -10 12 -5 -2 3 -10 8 -58 12 -106 7 -93 -1 -135 -49 -242 l-20 -45
-33 130 c-38 150 -40 146 -18 -45 17 -146 15 -172 -11 -205 -14 -19 -15 -13
-14 80 3 112 -7 155 -70 311 -21 54 -45 118 -52 142 -7 23 -14 41 -16 39 -5
-6 15 -99 43 -199 14 -47 29 -110 33 -140 8 -50 8 -52 -7 -30 -8 13 -42 82
-74 155 -53 120 -58 138 -59 207 -1 70 -2 72 -10 31 -5 -24 -10 -45 -12 -47
-2 -3 -17 26 -32 63 -37 89 -50 102 -26 28 54 -173 53 -164 36 -282 -24 -170
-23 -166 -50 -113 -13 25 -56 174 -96 333 -41 158 -75 283 -77 278 -2 -6 12
-115 32 -243 19 -128 40 -284 47 -347 12 -116 8 -418 -6 -440 -4 -8 -20 6 -45
39 l-37 50 -7 143 c-9 182 -23 364 -38 497 l-12 105 -18 -190 c-10 -104 -22
-199 -27 -210 -15 -36 -25 109 -12 176 7 34 10 63 7 66 -2 3 -8 -11 -11 -31
-4 -20 -10 -38 -14 -40 -4 -3 -15 49 -25 115 -10 66 -20 118 -23 116 -2 -3 0
-82 6 -176 8 -125 8 -177 0 -195 -11 -23 -16 -18 -105 115 -52 77 -94 145 -94
151 0 6 -3 9 -6 5 -4 -3 14 -49 40 -101 50 -103 63 -166 16 -76 -38 72 -38 61
1 -31 47 -111 74 -229 48 -213 -6 3 -3 -8 6 -26 16 -31 13 -86 -4 -76 -7 5
-36 147 -45 226 -2 19 -2 -53 1 -161 3 -135 1 -199 -6 -204 -7 -4 -11 7 -11
33 0 53 -23 125 -75 239 -25 52 -45 110 -46 127 0 17 -9 54 -20 81 l-19 50 5
-40 c5 -31 3 -37 -5 -25 -9 12 -10 8 -5 -15 13 -66 17 -130 6 -115 -8 11 -11
0 -11 -44 0 -35 -4 -56 -9 -50 -19 21 -71 192 -126 412 -32 128 -59 231 -61
230 -1 -2 13 -111 32 -243 36 -258 58 -476 52 -540 -3 -37 -5 -33 -30 55 -25
87 -28 112 -29 270 l-1 175 -12 -112 c-15 -137 -31 -163 -23 -38 4 55 3 80 -2
65 -5 -14 -9 -38 -10 -54 -1 -42 -15 -23 -41 59 -12 38 -28 81 -36 95 -16 27
-16 30 10 -75 13 -52 13 -80 2 -213 -13 -144 -26 -212 -26 -126 0 21 -7 154
-17 294 -15 218 -19 246 -25 190 -4 -36 -8 -115 -9 -176 0 -62 -5 -136 -10
-165 -7 -44 -7 -36 -4 46 3 87 2 95 -8 60 l-11 -40 -13 55 -12 55 4 -90 c4
-68 1 -101 -12 -137 -9 -27 -20 -48 -24 -48 -8 0 -79 158 -79 178 0 8 23 110
50 225 28 115 49 211 47 213 -2 2 -32 -79 -68 -181 -35 -102 -66 -185 -69
-185 -3 0 -30 54 -60 119 -30 66 -56 118 -58 117 -1 -2 21 -68 49 -147 l51
-144 -18 -50 c-34 -101 -39 -101 -42 -7 -5 154 -18 172 -24 35 -7 -149 -19
-179 -38 -96 -16 72 -15 93 5 194 9 44 15 82 13 85 -3 2 -22 -54 -43 -124 -20
-70 -40 -131 -44 -137 -3 -5 -9 6 -12 25 -5 26 -7 16 -8 -37 -1 -46 -5 -73
-12 -73 -6 0 -9 -7 -6 -15 3 -8 -5 -45 -18 -82 -23 -67 -24 -67 -24 -28 -1 22
6 78 14 125 8 47 14 94 14 105 l-1 20 -5 -20 c-3 -11 -14 -39 -24 -62 -10 -23
-19 -55 -20 -70 0 -15 -4 -37 -8 -48 -6 -14 -10 -5 -15 35 -4 30 -14 78 -23
106 l-15 50 35 90 c41 102 63 185 71 264 l5 55 -18 -65 c-32 -111 -82 -230
-97 -230 -4 0 -4 48 -1 108 7 115 -2 97 -23 -52 -11 -81 -14 -88 -27 -70 -9
12 -12 32 -9 54 3 19 8 62 10 95 l5 60 -18 -70 c-10 -38 -21 -69 -26 -68 -5 0
-24 30 -42 65 -38 71 -35 46 6 -52 22 -54 25 -72 18 -105 -15 -70 -21 -72 -27
-10 l-7 60 -2 -65 -3 -65 -18 50 c-23 63 -24 56 -4 -38 13 -65 13 -80 1 -102
-14 -27 -14 -27 -40 48 -32 90 -32 91 -7 236 20 117 20 158 0 80 -31 -122 -47
-164 -55 -145 -7 17 0 58 30 163 3 10 -7 -9 -23 -42 l-28 -60 -27 70 c-15 39
-33 88 -41 110 -24 67 -18 16 14 -104 17 -62 30 -123 30 -134 0 -20 0 -21 -15
-1 -13 18 -14 15 -15 -29 0 -34 -13 -79 -47 -158 -25 -60 -48 -107 -51 -104
-3 2 2 30 11 62 16 58 37 204 37 253 -1 40 -16 3 -23 -55 -3 -27 -14 -75 -23
-105 -26 -84 -34 -42 -28 145 5 178 -18 740 -29 685z m-4279 -342 c21 -35 49
-82 61 -106 l22 -43 -33 -89 c-17 -49 -33 -88 -35 -87 -1 2 -14 79 -28 172
-14 94 -28 180 -30 193 -8 35 0 27 43 -40z m-1903 -161 c15 -81 25 -155 23
-165 -2 -11 -14 5 -33 43 -28 56 -30 69 -32 185 -3 154 6 139 42 -63z m2065
39 c0 -23 3 -52 6 -66 3 -16 -4 -9 -20 20 -26 46 -31 75 -19 106 6 16 7 16 20
-2 7 -10 13 -36 13 -58z m-1045 -83 c9 -29 15 -57 13 -63 -7 -21 -78 127 -78
161 l0 34 24 -40 c13 -22 32 -63 41 -92z m10002 95 c-3 -7 -5 -2 -5 12 0 14 2
19 5 13 2 -7 2 -19 0 -25z m390 0 c-3 -8 -6 -5 -6 6 -1 11 2 17 5 13 3 -3 4
-12 1 -19z m-1073 -68 l16 -55 -20 25 c-12 16 -19 40 -19 65 1 44 1 43 23 -35z
m-10553 -360 c16 -63 29 -119 29 -124 0 -5 -50 57 -110 137 l-110 147 10 63
c5 34 10 89 11 122 l1 60 70 -145 c50 -104 78 -177 99 -260z m11630 280 c0
-19 15 -125 34 -235 47 -282 46 -263 20 -320 l-22 -50 -32 68 c-28 63 -31 78
-31 170 0 56 -7 129 -15 162 -8 33 -14 76 -15 96 0 34 24 164 37 199 7 19 23
-42 24 -90z m-10397 -119 l-7 -54 -28 34 c-27 32 -28 39 -28 129 l0 95 35 -75
c31 -67 34 -80 28 -129z m10014 12 c-3 -71 -9 -69 -26 7 -7 36 -8 24 -4 -54 4
-68 2 -97 -5 -93 -6 4 -14 31 -18 62 -6 50 13 162 43 250 9 25 14 -76 10 -172z
m-5671 -63 c6 -105 -12 -195 -61 -301 l-24 -54 -1 45 c0 94 19 496 26 525 6
28 8 25 31 -45 16 -48 26 -109 29 -170z m6565 157 c21 -45 40 -107 44 -137 8
-69 -8 -198 -49 -405 l-31 -160 -9 57 c-8 48 -4 79 22 200 40 188 55 268 50
273 -3 2 -24 -61 -48 -141 -26 -87 -47 -140 -52 -133 -17 28 -19 129 -5 234 8
61 18 152 22 203 4 51 10 92 13 92 3 0 23 -38 43 -83z m-9905 -26 c5 -66 -10
-260 -26 -317 -7 -26 -7 -25 -20 15 -18 63 -23 45 -5 -23 14 -53 14 -67 -5
-183 -32 -199 -33 -195 -32 136 1 200 4 246 22 315 41 166 40 162 51 143 5
-10 12 -48 15 -86z m3512 -13 c-1 -62 -3 -104 -5 -93 -3 11 -10 39 -15 62 -9
31 -8 54 2 92 7 28 14 51 16 51 2 0 2 -51 2 -112z m4838 -58 c-4 -30 -11 -80
-18 -110 -17 -80 -25 -44 -31 134 l-5 150 30 -59 c26 -52 29 -66 24 -115z
m-9817 -85 c-7 -25 -15 -45 -19 -45 -4 0 -14 15 -23 33 -14 25 -15 41 -8 77 5
25 10 77 11 115 l1 70 25 -102 c23 -92 24 -108 13 -148z m3520 -125 c11 -196
8 -280 -10 -310 -13 -20 -16 4 -37 255 -22 269 -22 294 2 370 l19 60 7 -86 c4
-48 12 -178 19 -289z m8123 294 c23 -55 25 -65 14 -102 -19 -62 -24 -59 -31
20 -4 40 -10 91 -13 113 -7 51 -1 45 30 -31z m-8480 -44 l6 -55 -19 24 c-22
25 -24 40 -13 92 5 27 7 29 13 13 4 -10 10 -44 13 -74z m5228 -142 l29 -57
-42 -107 c-50 -127 -45 -137 -83 141 -14 105 -29 204 -32 220 -6 33 75 -92
128 -197z m-5325 119 c-3 -32 -15 -77 -26 -100 -13 -28 -19 -33 -16 -17 3 14
8 67 12 119 6 85 8 92 21 75 11 -14 13 -35 9 -77z m5548 59 c13 -31 12 -51 -4
-177 -11 -78 -22 -144 -26 -148 -4 -3 -4 43 0 103 3 60 6 142 6 183 0 40 2 73
5 73 3 0 11 -15 19 -34z m-8375 -74 c1 -29 -3 -51 -8 -48 -14 9 -21 65 -14
110 6 37 7 38 14 16 4 -14 7 -49 8 -78z m2291 -3 c0 -11 -4 -19 -9 -19 -11 0
-21 36 -20 75 l0 30 14 -34 c8 -18 15 -42 15 -52z m6920 21 c0 -13 -1 -13 -10
0 -5 8 -10 22 -10 30 0 13 1 13 10 0 5 -8 10 -22 10 -30z m-9361 -49 c11 -41
19 -76 17 -78 -6 -6 -46 118 -46 141 0 31 7 16 29 -63z m-599 -55 c5 -34 11
-104 14 -156 l5 -95 -13 86 c-13 85 -42 235 -52 274 -3 11 4 5 16 -14 12 -19
26 -62 30 -95z m2979 6 c1 -20 -3 -31 -9 -27 -5 3 -10 27 -9 53 0 35 3 42 9
27 5 -11 9 -35 9 -53z m671 21 c29 -64 36 -147 20 -238 -7 -42 -14 -74 -16
-72 -2 2 -12 74 -23 160 -17 135 -18 197 -5 197 2 0 13 -21 24 -47z m6155
-152 c-4 -40 -10 -69 -15 -65 -4 5 -4 41 1 79 4 39 9 97 10 130 l3 60 4 -65
c2 -36 0 -98 -3 -139z m-6546 102 l0 -88 -15 45 c-16 49 -9 130 12 130 2 0 4
-39 3 -87z m2721 -18 c-5 -86 -10 -107 -34 -148 -16 -26 -30 -46 -32 -44 -5 5
53 273 62 288 10 17 10 9 4 -96z m2376 -66 c-11 -92 -14 -103 -11 -45 3 43 5
111 6 150 0 57 2 66 10 45 7 -18 5 -66 -5 -150z m981 139 c-3 -7 -5 -2 -5 12
0 14 2 19 5 13 2 -7 2 -19 0 -25z m622 -43 c0 -37 -3 -45 -9 -30 -12 29 -12
114 0 95 5 -8 9 -37 9 -65z m1228 -47 c9 -61 -13 -44 -26 20 -6 31 -14 68 -16
82 -3 14 4 5 16 -20 11 -25 23 -62 26 -82z m-11523 -81 l104 -177 -13 -58 c-8
-31 -20 -81 -27 -111 l-12 -54 -17 49 c-20 57 -23 42 -8 -40 9 -53 8 -67 -17
-148 -25 -80 -29 -87 -38 -67 -10 23 -10 23 -14 -8 -2 -18 -6 -33 -10 -33 -4
0 -18 -20 -32 -45 -14 -25 -28 -45 -32 -45 -5 0 -9 -10 -9 -22 -4 -63 -17 95
-18 212 -2 168 -17 401 -31 468 -10 46 -9 60 19 146 17 53 31 104 31 113 0 27
12 9 124 -180z m10908 152 c1 -48 -11 -86 -23 -68 -12 19 -11 52 1 85 13 33
20 27 22 -17z m1637 -61 c1 -53 -27 -208 -40 -223 -22 -24 -6 246 19 315 7 21
19 -32 21 -92z m-11899 31 c17 -33 30 -66 28 -73 -2 -8 -17 20 -34 60 -18 41
-30 74 -28 74 2 0 18 -27 34 -61z m8898 -271 c-12 -38 -25 -68 -28 -68 -28 0
-36 110 -23 305 l7 100 33 -135 32 -135 -21 -67z m-8259 247 c0 -11 -8 -45
-19 -75 l-18 -55 -1 105 -1 105 20 -30 c11 -16 20 -39 19 -50z m1476 -140 c19
-140 35 -283 34 -315 0 -14 -25 72 -56 189 l-55 215 18 65 18 66 13 -55 c6
-30 19 -104 28 -165z m3870 -23 c-26 -86 -51 -163 -56 -172 -13 -19 -10 -4 24
112 15 48 29 111 32 140 4 29 14 78 23 108 l17 55 3 -43 c2 -30 -11 -92 -43
-200z m-1420 29 c-13 -14 -15 -10 -15 41 0 31 6 80 13 110 l12 53 3 -94 c2
-75 0 -98 -13 -110z m178 130 c-6 -60 -7 -62 -20 -40 -9 14 -12 17 -9 6 16
-52 16 -101 0 -187 l-18 -95 -15 107 -14 107 39 85 c21 46 40 84 41 83 1 -1
-1 -31 -4 -66z m1518 22 c-9 -15 -10 -12 -10 17 0 29 1 32 10 18 7 -12 7 -24
0 -35z m1298 -73 c1 -23 -47 61 -54 95 -4 22 2 16 24 -25 17 -30 30 -62 30
-70z m-7960 -8 c1 -40 -3 -61 -9 -57 -6 3 -9 45 -9 93 2 100 16 70 18 -36z
m561 58 c10 -24 9 -37 -6 -75 -15 -41 -19 -44 -32 -31 -13 13 -13 23 -1 75 7
34 16 61 20 61 4 0 12 -13 19 -30z m6867 -22 c-3 -7 -5 -2 -5 12 0 14 2 19 5
13 2 -7 2 -19 0 -25z m1092 -223 c-1 -33 -4 -73 -8 -90 l-6 -30 -13 41 c-6 22
-14 108 -17 190 l-5 149 25 -100 c14 -56 24 -126 24 -160z m3277 68 l-16 -48
5 55 c3 30 5 84 6 120 l2 65 9 -72 c8 -57 7 -81 -6 -120z m-10201 107 l6 -45
-21 33 c-13 21 -18 41 -14 54 9 28 21 11 29 -42z m5353 -30 c6 -48 5 -86 -1
-104 l-10 -29 -13 24 c-17 30 -17 55 -2 138 13 75 14 74 26 -29z m-3748 44 c0
-13 -4 -24 -10 -24 -5 0 -10 14 -10 31 0 17 4 28 10 24 6 -3 10 -17 10 -31z
m3931 -118 c-1 -67 -4 -137 -7 -156 -6 -42 -34 -110 -44 -110 -13 0 -40 66
-40 97 0 15 17 94 37 175 45 174 57 173 54 -6z m-6472 18 c22 -126 26 -174 10
-114 -5 19 -19 70 -30 112 -13 46 -19 87 -15 104 4 14 9 25 11 22 2 -2 13 -58
24 -124z m254 -5 c-9 -75 -23 -39 -22 56 l1 80 13 -43 c9 -26 12 -62 8 -93z
m2386 66 c0 -17 -2 -15 -14 7 -8 15 -12 35 -8 45 6 16 8 15 14 -7 4 -14 7 -34
8 -45z m8058 18 c-3 -10 -5 -2 -5 17 0 19 2 27 5 18 2 -10 2 -26 0 -35z
m-7007 -120 c7 -62 9 -124 5 -140 l-7 -28 -20 39 c-18 34 -19 50 -13 119 3 44
9 87 12 96 4 14 3 14 -7 1 -10 -12 -11 -11 -6 10 3 14 6 32 6 40 3 40 19 -37
30 -137z m5395 6 c16 -69 17 -79 2 -120 l-15 -44 -1 85 c-1 47 -8 112 -16 145
-8 33 -14 65 -14 70 1 19 26 -60 44 -136z m945 120 c0 -11 -4 -18 -10 -14 -5
3 -7 12 -3 20 7 21 13 19 13 -6z m-9100 -61 c17 -33 30 -70 29 -82 0 -14 -5
-7 -14 19 -13 39 -14 38 -8 -33 6 -78 -13 -200 -29 -184 -5 5 -26 64 -47 130
l-39 121 31 50 c17 27 34 48 39 45 4 -3 22 -32 38 -66z m7244 -56 c4 -57 3
-81 -4 -77 -13 8 -13 -1 1 -26 13 -25 1 -208 -12 -187 -7 10 -9 8 -10 -7 -1
-11 -12 36 -26 105 l-24 124 28 98 c31 109 35 106 47 -30z m198 52 c-18 -87
-74 -264 -84 -264 -14 0 -9 30 34 187 29 107 44 151 52 143 7 -7 7 -27 -2 -66z
m-6578 -84 c9 -74 19 -155 22 -180 3 -25 4 -43 1 -40 -3 3 -25 64 -49 135
l-44 130 20 52 c12 28 24 49 28 45 3 -4 13 -68 22 -142z m1244 -22 l-3 -62
-18 27 c-15 24 -16 35 -7 95 18 111 24 125 28 60 2 -32 2 -85 0 -120z m791
107 c0 -16 -4 -37 -9 -45 -7 -10 -10 5 -9 50 0 45 3 59 9 45 5 -11 9 -33 9
-50z m6753 35 c3 -17 1 -33 -4 -36 -4 -3 -8 11 -8 30 0 44 6 47 12 6z m-5519
-120 c-2 -41 -6 -88 -11 -105 l-8 -30 -28 42 c-26 39 -28 47 -21 105 4 35 14
79 22 98 l15 35 17 -35 c11 -24 15 -58 14 -110z m762 60 c5 -29 4 -42 -3 -35
-5 6 -12 35 -15 65 -7 63 6 41 18 -30z m-2494 -17 c-2 -49 -9 -99 -17 -113
-26 -48 -17 102 11 188 9 25 10 10 6 -75z m2660 25 c-4 -35 -6 -38 -9 -15 -3
26 3 57 10 57 2 0 1 -19 -1 -42z m1103 -11 c21 -71 30 -157 22 -201 -9 -45
-20 -40 -40 20 -12 35 -14 68 -9 140 3 52 7 94 9 94 1 0 9 -24 18 -53z m-7492
-171 c-2 -59 -7 -85 -13 -75 -5 8 -9 25 -9 39 0 15 -4 30 -10 36 -8 8 -31 165
-29 204 0 8 15 -14 32 -50 30 -61 32 -71 29 -154z m2638 -13 l22 -52 -38 -45
c-25 -31 -41 -43 -48 -36 -14 14 -53 13 -58 -2 -2 -6 -12 10 -22 36 -19 51
-16 97 21 250 l16 70 43 -85 c23 -46 52 -107 64 -136z m1400 167 c-6 -23 -14
-40 -16 -37 -3 3 0 24 7 46 16 54 24 46 9 -9z m-3804 -17 l-15 -28 -1 27 c0
14 3 34 6 43 6 16 8 16 16 1 6 -10 4 -25 -6 -43z m114 -1 c0 -28 -3 -33 -10
-22 -13 20 -13 73 0 65 6 -3 10 -23 10 -43z m11095 -6 c4 -26 1 -68 -7 -102
l-13 -59 -6 65 c-11 119 11 199 26 96z m-4534 -39 c-8 -8 -11 2 -10 39 l1 49
10 -38 c7 -28 7 -42 -1 -50z m3836 36 c-3 -10 -5 -2 -5 17 0 19 2 27 5 18 2
-10 2 -26 0 -35z m-9827 -47 c-1 -12 -7 -32 -15 -46 -13 -24 -14 -21 -14 40 0
59 1 63 14 46 8 -11 15 -29 15 -40z m6805 34 c3 -5 1 -10 -4 -10 -6 0 -11 5
-11 10 0 6 2 10 4 10 3 0 8 -4 11 -10z m-5594 -101 c40 -182 43 -215 14 -146
-25 60 -56 200 -50 225 3 13 8 22 11 20 2 -3 13 -47 25 -99z m893 -9 c4 -26 3
-30 -3 -15 -9 19 -10 18 -11 -5 -3 -38 -19 45 -18 95 l0 40 13 -40 c7 -22 15
-56 19 -75z m982 43 c-11 -11 -17 4 -9 23 7 18 8 18 11 1 2 -10 1 -21 -2 -24z
m6261 -10 c-14 -31 -19 -24 -11 16 4 21 10 28 14 20 5 -7 3 -23 -3 -36z
m-7574 -5 c9 -21 14 -38 11 -38 -5 0 -34 64 -34 76 0 12 7 0 23 -38z m-2374 2
c11 -24 11 -24 -3 -6 -23 29 -20 7 12 -76 19 -48 26 -81 21 -93 -4 -11 -8 -14
-8 -7 -1 10 -14 13 -48 10 -37 -2 -49 -7 -55 -23 -5 -17 -6 -16 -7 6 -1 35 65
229 74 216 1 -1 8 -13 14 -27z m5447 -25 c-7 -28 -24 -70 -37 -95 -20 -39 -24
-42 -27 -22 -3 19 67 176 75 168 1 -1 -4 -24 -11 -51z m3605 -48 c-8 -8 -11 4
-10 44 l1 54 10 -44 c7 -30 6 -47 -1 -54z m-6477 -12 c5 -64 3 -85 -9 -100
-12 -17 -14 -17 -9 -2 3 9 1 17 -5 17 -14 0 -14 68 0 126 6 25 13 43 14 42 1
-2 5 -39 9 -83z m526 -67 c-10 -29 -19 -45 -19 -35 -1 9 -7 16 -13 15 -15 -3
-18 114 -5 147 8 18 12 14 33 -27 l23 -46 -19 -54z m3190 49 c-17 -57 -22 -39
-8 29 9 40 14 51 16 34 2 -13 -1 -42 -8 -63z m-3400 19 c-5 -15 -14 -24 -20
-21 -15 9 -12 27 7 55 14 19 18 21 21 9 1 -8 -2 -28 -8 -43z m2711 -3 c-11
-21 -20 -35 -21 -31 0 12 33 78 38 74 2 -2 -6 -21 -17 -43z m326 25 c-3 -8 -6
-5 -6 6 -1 11 2 17 5 13 3 -3 4 -12 1 -19z m-2185 -100 c-2 -9 -10 -14 -18
-11 -15 6 -20 93 -7 107 10 9 31 -73 25 -96z m1338 68 c-14 -14 -24 0 -16 21
6 15 8 15 16 3 6 -9 5 -19 0 -24z m-2383 -8 c-3 -8 -6 -5 -6 6 -1 11 2 17 5
13 3 -3 4 -12 1 -19z m-3050 -10 c-3 -8 -6 -5 -6 6 -1 11 2 17 5 13 3 -3 4
-12 1 -19z m1198 -35 c5 -28 4 -32 -9 -27 -11 4 -16 19 -16 48 1 45 13 35 25
-21z m7282 10 c-3 -10 -5 -2 -5 17 0 19 2 27 5 18 2 -10 2 -26 0 -35z m-1208
-25 c1 -15 -3 -30 -9 -33 -6 -4 -10 14 -9 47 0 39 3 48 9 33 5 -11 9 -32 9
-47z m712 -3 c11 -22 14 -32 6 -22 -17 20 -33 22 -40 5 -3 -7 -6 10 -6 37 -1
54 4 52 40 -20z m1136 -17 c-3 -7 -5 -2 -5 12 0 14 2 19 5 13 2 -7 2 -19 0
-25z m-2110 -25 c-3 -10 -5 -2 -5 17 0 19 2 27 5 18 2 -10 2 -26 0 -35z m-816
14 c-10 -9 -11 -8 -5 6 3 10 9 15 12 12 3 -3 0 -11 -7 -18z m5880 -74 c-11
-21 -20 -35 -21 -31 0 12 33 78 38 74 2 -2 -6 -21 -17 -43z m-12364 -5 c-3 -8
-6 -5 -6 6 -1 11 2 17 5 13 3 -3 4 -12 1 -19z m-300 -350 c-3 -8 -6 -5 -6 6
-1 11 2 17 5 13 3 -3 4 -12 1 -19z m12633 -587 c0 -10 -3 -21 -7 -25 -4 -4 -6
-45 -4 -91 2 -56 -1 -85 -8 -85 -6 0 -11 6 -12 13 0 6 -3 23 -5 37 -12 61 -16
125 -9 168 l7 47 19 -24 c10 -13 19 -31 19 -40z m-166 -248 c-4 -21 -13 -54
-21 -73 -8 -22 -12 -26 -9 -10 3 14 8 42 11 63 6 28 4 37 -6 37 -11 0 -11 2 1
10 26 17 31 11 24 -27z m115 -78 l0 -20 -9 20 c-5 11 -8 38 -8 60 l0 40 9 -40
c4 -22 8 -49 8 -60z"/>
<path d="M12791 4334 c0 -11 3 -14 6 -6 3 7 2 16 -1 19 -3 4 -6 -2 -5 -13z"/>
</g>
</svg>
